<?xml version="1.0" encoding="iso-8859-1"?>
<!-- Generator: Adobe Illustrator 16.0.0, SVG Export Plug-In . SVG Version: 6.00 Build 0)  -->
<!DOCTYPE svg PUBLIC "-//W3C//DTD SVG 1.1//EN" "http://www.w3.org/Graphics/SVG/1.1/DTD/svg11.dtd">
<svg xmlns="http://www.w3.org/2000/svg" xmlns:xlink="http://www.w3.org/1999/xlink" version="1.1" id="Capa_1" x="0px" y="0px" width="512px" height="512px" viewBox="0 0 92.94 92.941" style="enable-background:new 0 0 92.94 92.941;" xml:space="preserve">
<g>
	<path d="M85.508,33.972H7.575c0-14.156,11.475-25.631,25.631-25.631h26.672C74.033,8.341,85.508,19.816,85.508,33.972z    M6.945,65.361c0,10.627,8.613,19.238,19.238,19.238h40.72c10.624,0,19.236-8.611,19.236-19.238H6.945z M85.515,53.527   c-1.956,0.349-3.938,0.563-5.884,0.697c-4.754,0.326-9.834,0.275-14.504-1.029h-1.846c-5.616,2.992-12.736,3.349-18.827,2.103   c-1.644-0.336-3.483-1.377-5.299-2.103h-5.834c-3.781,1.492-6.856,3.267-11.26,2.523c-1.808-0.305-2.897-1.287-3.393-2.523H9.386   c-2.888,0-5.229,2.342-5.229,5.229c0,2.889,2.342,5.229,5.229,5.229h74.311c2.889,0,5.229-2.342,5.229-5.229   C88.926,56.177,87.506,54.265,85.515,53.527z M80.029,49.931l5.815,1.451c1.146,0.285,2.306-0.41,2.59-1.555   c0.286-1.146-0.409-2.306-1.555-2.59l-6.55-1.636c-0.479-0.117-0.979-0.068-1.424,0.139c-2.849,1.334-6.427,2.773-7.748,3.029   c-0.971-0.479-3.167-1.098-8.795-1.646c-0.32-0.031-0.646,0.01-0.945,0.123l-3.685,1.356l-6.509-1.438   c-0.287-0.063-0.586-0.068-0.875-0.01l-7.769,1.534h-6.646l-6.009-1.512C29.61,47.1,29.28,47.094,28.96,47.16   c-3.12,0.664-6.85,1.392-7.907,1.513c-0.457-0.216-1.408-0.841-2.002-1.229c-2.061-1.355-3.423-2.249-4.835-1.78   c-0.559,0.172-4.458,0.971-7.905,1.641c-1.158,0.227-1.913,1.348-1.687,2.506c0.224,1.158,1.345,1.912,2.504,1.688   c1.913-0.372,6.063-1.19,7.784-1.604c0.471,0.252,1.273,0.779,1.793,1.121c1.894,1.244,3.02,1.949,4.156,1.949   c1.15,0,6.002-0.992,8.502-1.521l5.786,1.455c0.17,0.043,0.345,0.064,0.521,0.064h7.119c0.139,0,0.277-0.014,0.414-0.041   l7.537-1.488l6.683,1.479c0.4,0.089,0.816,0.06,1.199-0.082l3.811-1.403c2.676,0.278,5.766,0.754,6.659,1.094   c0.332,0.31,0.749,0.582,1.62,0.582C72.12,53.101,74.709,52.384,80.029,49.931z M4.44,42.247c2.896,0.371,5.475-0.289,8.687,1.111   c3.211,1.4,4.64,3.678,8.577,3.992c6.3,0.453,9.799-2.607,15.22-3.938c2.058-0.635,4.405-0.758,6.752-0.881   c3.637-0.453,6.916-2.717,10.018-3.404c3.897-0.467,4.338,2.91,7.782,3.775c1.593,0.438,5.723-0.564,7.548-0.66   c0.236-0.014,0.521-0.01,0.825,0.002c2.119,1.387,4.058,1.832,6.847,1.686c1.043-0.057,1.372,1.234,2.648,0.645   c0.696-0.215,0.871-1.24,0.992-1.883c1.23-0.154,2.26-0.473,2.9-1.061c3.529-0.469,8.773-0.984,9.608-3.783   c1.62-4.008-17.784-0.107-20.928-0.203c-3.664-0.068-6.656-2.264-10.566-2.059c-4.954,0.262-8.811,1.512-13.463,2.541   c-8.014,1.729-17.182,1.428-24.73,2.088c-5.461,0.549-6.71-3.309-11.212-4.377C9.571,35.44,1.215,35.617,0.323,38.541   C-1.064,42.015,2.339,42.097,4.44,42.247z" fill="#FFFFFF"/>
</g>
<g>
</g>
<g>
</g>
<g>
</g>
<g>
</g>
<g>
</g>
<g>
</g>
<g>
</g>
<g>
</g>
<g>
</g>
<g>
</g>
<g>
</g>
<g>
</g>
<g>
</g>
<g>
</g>
<g>
</g>
</svg>
